<svg width="20" height="21" viewBox="0 0 20 21" fill="none" xmlns="http://www.w3.org/2000/svg">
<path d="M1.66663 7.16665C1.66663 6.28259 2.01782 5.43474 2.64294 4.80962C3.26806 4.1845 4.1159 3.83331 4.99996 3.83331H15C15.884 3.83331 16.7319 4.1845 17.357 4.80962C17.9821 5.43474 18.3333 6.28259 18.3333 7.16665V13.8333C18.3333 14.7174 17.9821 15.5652 17.357 16.1903C16.7319 16.8155 15.884 17.1666 15 17.1666H4.99996C4.1159 17.1666 3.26806 16.8155 2.64294 16.1903C2.01782 15.5652 1.66663 14.7174 1.66663 13.8333V7.16665Z" stroke="#FCFCFC" stroke-width="2" stroke-linecap="round" stroke-linejoin="round"/>
<path d="M8.33325 8L12.4999 10.5L8.33325 13V8Z" stroke="#FCFCFC" stroke-width="2" stroke-linecap="round" stroke-linejoin="round"/>
</svg>
