<svg width="235" height="832" viewBox="0 0 235 832" fill="none" xmlns="http://www.w3.org/2000/svg">
<path d="M216.129 -5L216.902 -0.932818L223.485 33.7338L223.506 33.8465C230.124 68.6956 243.649 139.919 189.639 211.024C169.057 238.12 138.533 265.254 108.463 291.984C99.5306 299.925 90.6382 307.83 82.0583 315.687C63.1774 332.979 45.723 350.097 32.1929 367.112C18.6347 384.162 9.31627 400.744 6.24202 416.933C0.107178 449.239 18.443 482.261 44.0328 517.037C51.1959 526.771 58.6573 536.305 66.1706 545.905C72.1258 553.514 78.1137 561.165 84.0116 568.991C97.1251 586.39 109.307 604.051 117.76 621.856C151.591 693.117 124.602 764.176 111.449 798.807L111.334 799.109L98.1676 833.775L96.9429 837H93.4934H-104H-109V832V797.333V797.13V796.925V796.72V796.514V796.308V796.1V795.892V795.683V795.473V795.263V795.051V794.839V794.626V794.413V794.198V793.983V793.767V793.55V793.332V793.114V792.895V792.675V792.455V792.233V792.011V791.788V791.565V791.34V791.115V790.889V790.663V790.436V790.207V789.979V789.749V789.519V789.288V789.056V788.823V788.59V788.356V788.121V787.886V787.65V787.413V787.175V786.937V786.698V786.458V786.218V785.976V785.734V785.492V785.248V785.004V784.76V784.514V784.268V784.021V783.773V783.525V783.276V783.026V782.776V782.525V782.273V782.021V781.768V781.514V781.259V781.004V780.748V780.492V780.234V779.976V779.718V779.458V779.198V778.938V778.677V778.414V778.152V777.889V777.625V777.36V777.095V776.829V776.562V776.295V776.027V775.758V775.489V775.219V774.949V774.677V774.406V774.133V773.86V773.586V773.312V773.037V772.761V772.485V772.208V771.93V771.652V771.373V771.094V770.814V770.533V770.252V769.97V769.687V769.404V769.12V768.836V768.551V768.265V767.979V767.692V767.404V767.116V766.827V766.538V766.248V765.958V765.667V765.375V765.083V764.79V764.496V764.202V763.908V763.612V763.317V763.02V762.723V762.426V762.127V761.829V761.529V761.229V760.929V760.628V760.326V760.024V759.721V759.418V759.114V758.81V758.505V758.199V757.893V757.587V757.279V756.972V756.663V756.354V756.045V755.735V755.424V755.113V754.802V754.49V754.177V753.864V753.55V753.236V752.921V752.606V752.29V751.973V751.656V751.339V751.021V750.702V750.383V750.064V749.744V749.423V749.102V748.78V748.458V748.136V747.812V747.489V747.165V746.84V746.515V746.189V745.863V745.536V745.209V744.882V744.553V744.225V743.896V743.566V743.236V742.905V742.574V742.243V741.911V741.578V741.245V740.912V740.578V740.244V739.909V739.573V739.237V738.901V738.564V738.227V737.89V737.551V737.213V736.874V736.534V736.194V735.854V735.513V735.172V734.83V734.488V734.145V733.802V733.459V733.115V732.77V732.425V732.08V731.734V731.388V731.042V730.695V730.347V729.999V729.651V729.302V728.953V728.604V728.254V727.903V727.552V727.201V726.85V726.498V726.145V725.792V725.439V725.085V724.731V724.377V724.022V723.667V723.311V722.955V722.598V722.242V721.884V721.527V721.169V720.81V720.452V720.092V719.733V719.373V719.013V718.652V718.291V717.929V717.568V717.205V716.843V716.48V716.117V715.753V715.389V715.025V714.66V714.295V713.929V713.564V713.198V712.831V712.464V712.097V711.729V711.362V710.993V710.625V710.256V709.887V709.517V709.147V708.777V708.406V708.035V707.664V707.292V706.92V706.548V706.176V705.803V705.43V705.056V704.682V704.308V703.934V703.559V703.184V702.808V702.433V702.057V701.68V701.304V700.927V700.549V700.172V699.794V699.416V699.037V698.659V698.28V697.9V697.521V697.141V696.761V696.38V696V695.619V695.237V694.856V694.474V694.092V693.709V693.327V692.944V692.561V692.177V691.794V691.409V691.025V690.641V690.256V689.871V689.486V689.1V688.714V688.328V687.942V687.555V687.169V686.782V686.394V686.007V685.619V685.231V684.843V684.454V684.066V683.677V683.288V682.898V682.509V682.119V681.729V681.338V680.948V680.557V680.166V679.775V679.384V678.992V678.6V678.208V677.816V677.424V677.031V676.638V676.245V675.852V675.458V675.065V674.671V674.277V673.883V673.488V673.093V672.699V672.304V671.908V671.513V671.118V670.722V670.326V669.93V669.534V669.137V668.74V668.344V667.947V667.55V667.152V666.755V666.357V665.959V665.561V665.163V664.765V664.367V663.968V663.569V663.17V662.771V662.372V661.973V661.573V661.174V660.774V660.374V659.974V659.574V659.174V658.773V658.373V657.972V657.571V657.17V656.769V656.368V655.966V655.565V655.163V654.762V654.36V653.958V653.556V653.154V652.751V652.349V651.946V651.544V651.141V650.738V650.335V649.932V649.529V649.126V648.723V648.319V647.916V647.512V647.108V646.705V646.301V645.897V645.493V645.089V644.684V644.28V643.876V643.471V643.067V642.662V642.258V641.853V641.448V641.043V640.638V640.233V639.828V639.423V639.018V638.613V638.208V637.802V637.397V636.991V636.586V636.18V635.775V635.369V634.964V634.558V634.152V633.746V633.341V632.935V632.529V632.123V631.717V631.311V630.905V630.499V630.093V629.687V629.281V628.875V628.468V628.062V627.656V627.25V626.844V626.437V626.031V625.625V625.219V624.812V624.406V624V623.594V623.187V622.781V622.375V621.969V621.562V621.156V620.75V620.344V619.937V619.531V619.125V618.719V618.312V617.906V617.5V617.094V616.687V616.281V615.875V615.469V615.062V614.656V614.25V613.844V613.437V613.031V612.625V612.219V611.812V611.406V611V610.594V610.187V609.781V609.375V608.969V608.562V608.156V607.75V607.344V606.937V606.531V606.125V605.719V605.312V604.906V604.5V604.094V603.687V603.281V602.875V602.469V602.062V601.656V601.25V600.844V600.437V600.031V599.625V599.219V598.812V598.406V598V597.594V597.187V596.781V596.375V595.969V595.562V595.156V594.75V594.344V593.937V593.531V593.125V592.719V592.312V591.906V591.5V591.094V590.687V590.281V589.875V589.469V589.062V588.656V588.25V587.844V587.437V587.031V586.625V586.219V585.812V585.406V585V584.594V584.187V583.781V583.375V582.969V582.562V582.156V581.75V581.344V580.937V580.531V580.125V579.719V579.312V578.906V578.5V578.094V577.687V577.281V576.875V576.469V576.062V575.656V575.25V574.844V574.437V574.031V573.625V573.219V572.812V572.406V572V571.594V571.187V570.781V570.375V569.969V569.562V569.156V568.75V568.344V567.937V567.531V567.125V566.719V566.312V565.906V565.5V565.094V564.687V564.281V563.875V563.469V563.062V562.656V562.25V561.844V561.437V561.031V560.625V560.219V559.812V559.406V559V558.594V558.187V557.781V557.375V556.969V556.562V556.156V555.75V555.344V554.937V554.531V554.125V553.719V553.312V552.906V552.5V552.094V551.687V551.281V550.875V550.469V550.062V549.656V549.25V548.844V548.437V548.031V547.625V547.219V546.812V546.406V546V545.594V545.187V544.781V544.375V543.969V543.562V543.156V542.75V542.344V541.937V541.531V541.125V540.719V540.312V539.906V539.5V539.094V538.687V538.281V537.875V537.469V537.062V536.656V536.25V535.844V535.437V535.031V534.625V534.219V533.812V533.406V533V532.594V532.187V531.781V531.375V530.969V530.562V530.156V529.75V529.344V528.937V528.531V528.125V527.719V527.312V526.906V526.5V526.094V525.687V525.281V524.875V524.469V524.062V523.656V523.25V522.844V522.437V522.031V521.625V521.219V520.812V520.406V520V519.594V519.188V518.781V518.375V517.969V517.562V517.156V516.75V516.344V515.938V515.531V515.125V514.719V514.312V513.906V513.5V513.094V512.688V512.281V511.875V511.469V511.062V510.656V510.25V509.844V509.437V509.031V508.625V508.219V507.812V507.406V507V506.594V506.187V505.781V505.375V504.969V504.562V504.156V503.75V503.344V502.937V502.531V502.125V501.719V501.312V500.906V500.5V500.094V499.687V499.281V498.875V498.469V498.062V497.656V497.25V496.844V496.437V496.031V495.625V495.219V494.812V494.406V494V493.594V493.187V492.781V492.375V491.969V491.562V491.156V490.75V490.344V489.937V489.531V489.125V488.719V488.312V487.906V487.5V487.094V486.687V486.281V485.875V485.469V485.062V484.656V484.25V483.844V483.437V483.031V482.625V482.219V481.812V481.406V481V480.594V480.187V479.781V479.375V478.969V478.562V478.156V477.75V477.344V476.937V476.531V476.125V475.719V475.312V474.906V474.5V474.094V473.687V473.281V472.875V472.469V472.062V471.656V471.25V470.844V470.437V470.031V469.625V469.219V468.812V468.406V468V467.594V467.188V466.781V466.375V465.969V465.562V465.156V464.75V464.344V463.938V463.531V463.125V462.719V462.312V461.906V461.5V461.094V460.688V460.281V459.875V459.469V459.062V458.656V458.25V457.844V457.438V457.031V456.625V456.219V455.812V455.406V455V454.594V454.188V453.781V453.375V452.969V452.562V452.156V451.75V451.344V450.938V450.531V450.125V449.719V449.312V448.906V448.5V448.094V447.688V447.281V446.875V446.469V446.062V445.656V445.25V444.844V444.438V444.031V443.625V443.219V442.812V442.406V442V441.594V441.188V440.781V440.375V439.969V439.562V439.156V438.75V438.344V437.938V437.531V437.125V436.719V436.312V435.906V435.5V435.094V434.688V434.281V433.875V433.469V433.062V432.656V432.25V431.844V431.438V431.031V430.625V430.219V429.812V429.406V429V428.594V428.188V427.781V427.375V426.969V426.562V426.156V425.75V425.344V424.938V424.531V424.125V423.719V423.312V422.906V422.5V422.094V421.688V421.281V420.875V420.469V420.062V419.656V419.25V418.844V418.438V418.031V417.625V417.219V416.812V416.406V416V415.594V415.188V414.781V414.375V413.969V413.562V413.156V412.75V412.344V411.938V411.531V411.125V410.719V410.312V409.906V409.5V409.094V408.688V408.281V407.875V407.469V407.062V406.656V406.25V405.844V405.438V405.031V404.625V404.219V403.812V403.406V403V402.594V402.188V401.781V401.375V400.969V400.562V400.156V399.75V399.344V398.938V398.531V398.125V397.719V397.312V396.906V396.5V396.094V395.688V395.281V394.875V394.469V394.062V393.656V393.25V392.844V392.438V392.031V391.625V391.219V390.812V390.406V390V389.594V389.188V388.781V388.375V387.969V387.562V387.156V386.75V386.344V385.938V385.531V385.125V384.719V384.312V383.906V383.5V383.094V382.688V382.281V381.875V381.469V381.062V380.656V380.25V379.844V379.438V379.031V378.625V378.219V377.812V377.406V377V376.594V376.188V375.781V375.375V374.969V374.562V374.156V373.75V373.344V372.938V372.531V372.125V371.719V371.312V370.906V370.5V370.094V369.688V369.281V368.875V368.469V368.062V367.656V367.25V366.844V366.438V366.031V365.625V365.219V364.812V364.406V364V363.594V363.188V362.781V362.375V361.969V361.562V361.156V360.75V360.344V359.938V359.531V359.125V358.719V358.312V357.906V357.5V357.094V356.688V356.281V355.875V355.469V355.062V354.656V354.25V353.844V353.438V353.031V352.625V352.219V351.812V351.406V351V350.594V350.188V349.781V349.375V348.969V348.562V348.156V347.75V347.344V346.938V346.531V346.125V345.719V345.312V344.906V344.5V344.094V343.688V343.281V342.875V342.469V342.062V341.656V341.25V340.844V340.438V340.031V339.625V339.219V338.812V338.406V338V337.594V337.188V336.781V336.375V335.969V335.562V335.156V334.75V334.344V333.938V333.531V333.125V332.719V332.312V331.906V331.5V331.094V330.688V330.281V329.875V329.469V329.062V328.656V328.25V327.844V327.438V327.031V326.625V326.219V325.812V325.406V325V324.594V324.188V323.781V323.375V322.969V322.562V322.156V321.75V321.344V320.938V320.531V320.125V319.719V319.312V318.906V318.5V318.094V317.688V317.281V316.875V316.469V316.062V315.656V315.25V314.844V314.438V314.031V313.625V313.219V312.812V312.406V312V311.594V311.188V310.781V310.375V309.969V309.562V309.156V308.75V308.344V307.938V307.531V307.125V306.719V306.312V305.906V305.5V305.094V304.688V304.281V303.875V303.469V303.062V302.656V302.25V301.844V301.438V301.031V300.625V300.219V299.812V299.406V299V298.594V298.188V297.781V297.375V296.969V296.562V296.156V295.75V295.344V294.938V294.531V294.125V293.719V293.312V292.906V292.5V292.094V291.688V291.281V290.875V290.469V290.062V289.656V289.25V288.844V288.438V288.031V287.625V287.219V286.812V286.406V286V285.594V285.188V284.781V284.375V283.969V283.562V283.156V282.75V282.344V281.938V281.531V281.125V280.719V280.312V279.906V279.5V279.094V278.688V278.281V277.875V277.469V277.062V276.656V276.25V275.844V275.438V275.031V274.625V274.219V273.812V273.406V273V272.594V272.188V271.781V271.375V270.969V270.562V270.156V269.75V269.344V268.938V268.531V268.125V267.719V267.312V266.906V266.5V266.094V265.688V265.281V264.875V264.469V264.062V263.656V263.25V262.844V262.438V262.031V261.625V261.219V260.812V260.406V260V259.594V259.188V258.781V258.375V257.969V257.562V257.156V256.75V256.344V255.937V255.531V255.125V254.719V254.312V253.906V253.5V253.094V252.687V252.281V251.875V251.469V251.062V250.656V250.25V249.844V249.437V249.031V248.625V248.219V247.812V247.406V247V246.594V246.187V245.781V245.375V244.969V244.562V244.156V243.75V243.344V242.937V242.531V242.125V241.719V241.313V240.906V240.5V240.094V239.688V239.281V238.875V238.469V238.063V237.656V237.25V236.844V236.438V236.031V235.625V235.219V234.813V234.406V234V233.594V233.188V232.781V232.375V231.969V231.563V231.156V230.75V230.344V229.938V229.531V229.125V228.719V228.313V227.906V227.5V227.094V226.688V226.281V225.875V225.469V225.063V224.656V224.25V223.844V223.438V223.031V222.625V222.219V221.813V221.406V221V220.594V220.188V219.781V219.375V218.969V218.563V218.156V217.75V217.344V216.938V216.531V216.125V215.719V215.313V214.906V214.5V214.094V213.688V213.281V212.875V212.469V212.063V211.656V211.25V210.844V210.438V210.031V209.625V209.219V208.813V208.406V208L216.129 -5ZM216.129 -5H211.989M216.129 -5H211.989M211.989 -5V0M211.989 -5V0M211.989 0L-104 0M211.989 0L218.573 34.6667C225.156 69.3333 238.322 138.667 185.657 208C165.401 234.667 135.407 261.333 105.413 288C57.4226 330.667 9.4321 373.333 1.3298 416C-7.09657 460.373 27.6201 504.747 62.3368 549.12C81.865 574.08 101.393 599.04 113.243 624C146.158 693.333 119.826 762.667 106.66 797.333L93.4934 832H-99H-104V827V797.333V624V416V208V34.6667V0M-104 0V-5H-109V0L-104 0ZM-109 34.8702V34.6667V34.8702ZM-109 34.8702V35.0745M-109 34.8702V35.0745M-109 35.0745V35.2796M-109 35.0745V35.2796M-109 35.2796V35.4855M-109 35.2796V35.4855M-109 35.4855V35.6922M-109 35.4855V35.6922M-109 35.6922V35.8996M-109 35.6922V35.8996M-109 35.8996V36.1079M-109 35.8996V36.1079M-109 36.1079V36.3169M-109 36.1079V36.3169M-109 36.3169V36.5267M-109 36.3169V36.5267M-109 36.5267V36.7373M-109 36.5267V36.7373M-109 36.7373V36.9487M-109 36.7373V36.9487M-109 36.9487V37.1608M-109 36.9487V37.1608M-109 37.1608V37.3738M-109 37.1608V37.3738M-109 37.3738V37.5875M-109 37.3738V37.5875M-109 37.5875V37.8019M-109 37.5875V37.8019M-109 37.8019V38.0172M-109 37.8019V38.0172M-109 38.0172V38.2332M-109 38.0172V38.2332M-109 38.2332V38.4499M-109 38.2332V38.4499M-109 38.4499V38.6675M-109 38.4499V38.6675M-109 38.6675V38.8858M-109 38.6675V38.8858M-109 38.8858V39.1049M-109 38.8858V39.1049M-109 39.1049V39.3247M-109 39.1049V39.3247M-109 39.3247V39.5453M-109 39.3247V39.5453M-109 39.5453V39.7666M-109 39.5453V39.7666M-109 39.7666V39.9887M-109 39.7666V39.9887M-109 39.9887V40.2116M-109 39.9887V40.2116M-109 40.2116V40.4352M-109 40.2116V40.4352M-109 40.4352V40.6595M-109 40.4352V40.6595M-109 40.6595V40.8846M-109 40.6595V40.8846M-109 40.8846V41.1105M-109 40.8846V41.1105M-109 41.1105V41.3371M-109 41.1105V41.3371M-109 41.3371V41.5644M-109 41.3371V41.5644M-109 41.5644V41.7925M-109 41.5644V41.7925M-109 41.7925V42.0214M-109 41.7925V42.0214M-109 42.0214V42.251M-109 42.0214V42.251M-109 42.251V42.4813M-109 42.251V42.4813M-109 42.4813V42.7123M-109 42.4813V42.7123M-109 42.7123V42.9441M-109 42.7123V42.9441M-109 42.9441V43.1766M-109 42.9441V43.1766M-109 43.1766V43.4099M-109 43.1766V43.4099M-109 43.4099V43.6439M-109 43.4099V43.6439M-109 43.6439V43.8786M-109 43.6439V43.8786M-109 43.8786V44.1141M-109 43.8786V44.1141M-109 44.1141V44.3502M-109 44.1141V44.3502M-109 44.3502V44.5871M-109 44.3502V44.5871M-109 44.5871V44.8247M-109 44.5871V44.8247M-109 44.8247V45.0631M-109 44.8247V45.0631M-109 45.0631V45.3022M-109 45.0631V45.3022M-109 45.3022V45.5419M-109 45.3022V45.5419M-109 45.5419V45.7824M-109 45.5419V45.7824M-109 45.7824V46.0237M-109 45.7824V46.0237M-109 46.0237V46.2656M-109 46.0237V46.2656M-109 46.2656V46.5082M-109 46.2656V46.5082M-109 46.5082V46.7516M-109 46.5082V46.7516M-109 46.7516V46.9957M-109 46.7516V46.9957M-109 46.9957V47.2404M-109 46.9957V47.2404M-109 47.2404V47.4859M-109 47.2404V47.4859M-109 47.4859V47.7321M-109 47.4859V47.7321M-109 47.7321V47.979M-109 47.7321V47.979M-109 47.979V48.2266M-109 47.979V48.2266M-109 48.2266V48.4749M-109 48.2266V48.4749M-109 48.4749V48.7239M-109 48.4749V48.7239M-109 48.7239V48.9736M-109 48.7239V48.9736M-109 48.9736V49.224M-109 48.9736V49.224M-109 49.224V49.475M-109 49.224V49.475M-109 49.475V49.7268M-109 49.475V49.7268M-109 49.7268V49.9793M-109 49.7268V49.9793M-109 49.9793V50.2324M-109 49.9793V50.2324M-109 50.2324V50.4863M-109 50.2324V50.4863M-109 50.4863V50.7408M-109 50.4863V50.7408M-109 50.7408V50.996M-109 50.7408V50.996M-109 50.996V51.2519M-109 50.996V51.2519M-109 51.2519V51.5085M-109 51.2519V51.5085M-109 51.5085V51.7657M-109 51.5085V51.7657M-109 51.7657V52.0237M-109 51.7657V52.0237M-109 52.0237V52.2823M-109 52.0237V52.2823M-109 52.2823V52.5416M-109 52.2823V52.5416M-109 52.5416V52.8015M-109 52.5416V52.8015M-109 52.8015V53.0622M-109 52.8015V53.0622M-109 53.0622V53.3235M-109 53.0622V53.3235M-109 53.3235V53.5855M-109 53.3235V53.5855M-109 53.5855V53.8481M-109 53.5855V53.8481M-109 53.8481V54.1114M-109 53.8481V54.1114M-109 54.1114V54.3754M-109 54.1114V54.3754M-109 54.3754V54.64M-109 54.3754V54.64M-109 54.64V54.9053M-109 54.64V54.9053M-109 54.9053V55.1713M-109 54.9053V55.1713M-109 55.1713V55.4379M-109 55.1713V55.4379M-109 55.4379V55.7052M-109 55.4379V55.7052M-109 55.7052V55.9731M-109 55.7052V55.9731M-109 55.9731V56.2417M-109 55.9731V56.2417M-109 56.2417V56.5109M-109 56.2417V56.5109M-109 56.5109V56.7808M-109 56.5109V56.7808M-109 56.7808V57.0514M-109 56.7808V57.0514M-109 57.0514V57.3226M-109 57.0514V57.3226M-109 57.3226V57.5944M-109 57.3226V57.5944M-109 57.5944V57.8669M-109 57.5944V57.8669M-109 57.8669V58.14M-109 57.8669V58.14M-109 58.14V58.4138M-109 58.14V58.4138M-109 58.4138V58.6882M-109 58.4138V58.6882M-109 58.6882V58.9632M-109 58.6882V58.9632M-109 58.9632V59.2389M-109 58.9632V59.2389M-109 59.2389V59.5152M-109 59.2389V59.5152M-109 59.5152V59.7921M-109 59.5152V59.7921M-109 59.7921V60.0697M-109 59.7921V60.0697M-109 60.0697V60.3479M-109 60.0697V60.3479M-109 60.3479V60.6268M-109 60.3479V60.6268M-109 60.6268V60.9062M-109 60.6268V60.9062M-109 60.9062V61.1863M-109 60.9062V61.1863M-109 61.1863V61.467M-109 61.1863V61.467M-109 61.467V61.7484M-109 61.467V61.7484M-109 61.7484V62.0304M-109 61.7484V62.0304M-109 62.0304V62.3129M-109 62.0304V62.3129M-109 62.3129V62.5961M-109 62.3129V62.5961M-109 62.5961V62.88M-109 62.5961V62.88M-109 62.88V63.1644M-109 62.88V63.1644M-109 63.1644V63.4494M-109 63.1644V63.4494M-109 63.4494V63.7351M-109 63.4494V63.7351M-109 63.7351V64.0214M-109 63.7351V64.0214M-109 64.0214V64.3082M-109 64.0214V64.3082M-109 64.3082V64.5957M-109 64.3082V64.5957M-109 64.5957V64.8838M-109 64.5957V64.8838M-109 64.8838V65.1725M-109 64.8838V65.1725M-109 65.1725V65.4618M-109 65.1725V65.4618M-109 65.4618V65.7517M-109 65.4618V65.7517M-109 65.7517V66.0422M-109 65.7517V66.0422M-109 66.0422V66.3333M-109 66.0422V66.3333M-109 66.3333V66.625M-109 66.3333V66.625M-109 66.625V66.9173M-109 66.625V66.9173M-109 66.9173V67.2102M-109 66.9173V67.2102M-109 67.2102V67.5036M-109 67.2102V67.5036M-109 67.5036V67.7977M-109 67.5036V67.7977M-109 67.7977V68.0924M-109 67.7977V68.0924M-109 68.0924V68.3876M-109 68.0924V68.3876M-109 68.3876V68.6834M-109 68.3876V68.6834M-109 68.6834V68.9798M-109 68.6834V68.9798M-109 68.9798V69.2768M-109 68.9798V69.2768M-109 69.2768V69.5744M-109 69.2768V69.5744M-109 69.5744V69.8726M-109 69.5744V69.8726M-109 69.8726V70.1713M-109 69.8726V70.1713M-109 70.1713V70.4706M-109 70.1713V70.4706M-109 70.4706V70.7705M-109 70.4706V70.7705M-109 70.7705V71.071M-109 70.7705V71.071M-109 71.071V71.372M-109 71.071V71.372M-109 71.372V71.6736M-109 71.372V71.6736M-109 71.6736V71.9758M-109 71.6736V71.9758M-109 71.9758V72.2785M-109 71.9758V72.2785M-109 72.2785V72.5818M-109 72.2785V72.5818M-109 72.5818V72.8857M-109 72.5818V72.8857M-109 72.8857V73.1901M-109 72.8857V73.1901M-109 73.1901V73.4951M-109 73.1901V73.4951M-109 73.4951V73.8006M-109 73.4951V73.8006M-109 73.8006V74.1067M-109 73.8006V74.1067M-109 74.1067V74.4134M-109 74.1067V74.4134M-109 74.4134V74.7206M-109 74.4134V74.7206M-109 74.7206V75.0284M-109 74.7206V75.0284M-109 75.0284V75.3367M-109 75.0284V75.3367M-109 75.3367V75.6456M-109 75.3367V75.6456M-109 75.6456V75.955M-109 75.6456V75.955M-109 75.955V76.265M-109 75.955V76.265M-109 76.265V76.5755M-109 76.265V76.5755M-109 76.5755V76.8865M-109 76.5755V76.8865M-109 76.8865V77.1981M-109 76.8865V77.1981M-109 77.1981V77.5103M-109 77.1981V77.5103M-109 77.5103V77.823M-109 77.5103V77.823M-109 77.823V78.1362M-109 77.823V78.1362M-109 78.1362V78.4499M-109 78.1362V78.4499M-109 78.4499V78.7642M-109 78.4499V78.7642M-109 78.7642V79.079M-109 78.7642V79.079M-109 79.079V79.3944M-109 79.079V79.3944M-109 79.3944V79.7103M-109 79.3944V79.7103M-109 79.7103V80.0267M-109 79.7103V80.0267M-109 80.0267V80.3436M-109 80.0267V80.3436M-109 80.3436V80.6611M-109 80.3436V80.6611M-109 80.6611V80.9791M-109 80.6611V80.9791M-109 80.9791V81.2976M-109 80.9791V81.2976M-109 81.2976V81.6166M-109 81.2976V81.6166M-109 81.6166V81.9362M-109 81.6166V81.9362M-109 81.9362V82.2563M-109 81.9362V82.2563M-109 82.2563V82.5768M-109 82.2563V82.5768M-109 82.5768V82.8979M-109 82.5768V82.8979M-109 82.8979V83.2196M-109 82.8979V83.2196M-109 83.2196V83.5417M-109 83.2196V83.5417M-109 83.5417V83.8643M-109 83.5417V83.8643M-109 83.8643V84.1874M-109 83.8643V84.1874M-109 84.1874V84.5111M-109 84.1874V84.5111M-109 84.5111V84.8353M-109 84.5111V84.8353M-109 84.8353V85.1599M-109 84.8353V85.1599M-109 85.1599V85.4851M-109 85.1599V85.4851M-109 85.4851V85.8107M-109 85.4851V85.8107M-109 85.8107V86.1369M-109 85.8107V86.1369M-109 86.1369V86.4635M-109 86.1369V86.4635M-109 86.4635V86.7907M-109 86.4635V86.7907M-109 86.7907V87.1183M-109 86.7907V87.1183M-109 87.1183V87.4465M-109 87.1183V87.4465M-109 87.4465V87.7751M-109 87.4465V87.7751M-109 87.7751V88.1042M-109 87.7751V88.1042M-109 88.1042V88.4338M-109 88.1042V88.4338M-109 88.4338V88.7639M-109 88.4338V88.7639M-109 88.7639V89.0945M-109 88.7639V89.0945M-109 89.0945V89.4256M-109 89.0945V89.4256M-109 89.4256V89.7571M-109 89.4256V89.7571M-109 89.7571V90.0891M-109 89.7571V90.0891M-109 90.0891V90.4217M-109 90.0891V90.4217M-109 90.4217V90.7546M-109 90.4217V90.7546M-109 90.7546V91.0881M-109 90.7546V91.0881M-109 91.0881V91.422M-109 91.0881V91.422M-109 91.422V91.7564M-109 91.422V91.7564M-109 91.7564V92.0913M-109 91.7564V92.0913M-109 92.0913V92.4267M-109 92.0913V92.4267M-109 92.4267V92.7625M-109 92.4267V92.7625M-109 92.7625V93.0987M-109 92.7625V93.0987M-109 93.0987V93.4355M-109 93.0987V93.4355M-109 93.4355V93.7727M-109 93.4355V93.7727M-109 93.7727V94.1104M-109 93.7727V94.1104M-109 94.1104V94.4485M-109 94.1104V94.4485M-109 94.4485V94.7871M-109 94.4485V94.7871M-109 94.7871V95.1261M-109 94.7871V95.1261M-109 95.1261V95.4656M-109 95.1261V95.4656M-109 95.4656V95.8056M-109 95.4656V95.8056M-109 95.8056V96.146M-109 95.8056V96.146M-109 96.146V96.4869M-109 96.146V96.4869M-109 96.4869V96.8282M-109 96.4869V96.8282M-109 96.8282V97.1699M-109 96.8282V97.1699M-109 97.1699V97.5121M-109 97.1699V97.5121M-109 97.5121V97.8548M-109 97.5121V97.8548M-109 97.8548V98.1979M-109 97.8548V98.1979M-109 98.1979V98.5414M-109 98.1979V98.5414M-109 98.5414V98.8854M-109 98.5414V98.8854M-109 98.8854V99.2298M-109 98.8854V99.2298M-109 99.2298V99.5746M-109 99.2298V99.5746M-109 99.5746V99.9199M-109 99.5746V99.9199M-109 99.9199V100.266M-109 99.9199V100.266M-109 100.266V100.612M-109 100.266V100.612M-109 100.612V100.958M-109 100.612V100.958M-109 100.958V101.305M-109 100.958V101.305M-109 101.305V101.653M-109 101.305V101.653M-109 101.653V102.001M-109 101.653V102.001M-109 102.001V102.349M-109 102.001V102.349M-109 102.349V102.698M-109 102.349V102.698M-109 102.698V103.047M-109 102.698V103.047M-109 103.047V103.396M-109 103.047V103.396M-109 103.396V103.746M-109 103.396V103.746M-109 103.746V104.097M-109 103.746V104.097M-109 104.097V104.448M-109 104.097V104.448M-109 104.448V104.799M-109 104.448V104.799M-109 104.799V105.15M-109 104.799V105.15M-109 105.15V105.502M-109 105.15V105.502M-109 105.502V105.855M-109 105.502V105.855M-109 105.855V106.208M-109 105.855V106.208M-109 106.208V106.561M-109 106.208V106.561M-109 106.561V106.915M-109 106.561V106.915M-109 106.915V107.269M-109 106.915V107.269M-109 107.269V107.623M-109 107.269V107.623M-109 107.623V107.978M-109 107.623V107.978M-109 107.978V108.333M-109 107.978V108.333M-109 108.333V108.689M-109 108.333V108.689M-109 108.689V109.045M-109 108.689V109.045M-109 109.045V109.402M-109 109.045V109.402M-109 109.402V109.758M-109 109.402V109.758M-109 109.758V110.116M-109 109.758V110.116M-109 110.116V110.473M-109 110.116V110.473M-109 110.473V110.831M-109 110.473V110.831M-109 110.831V111.19M-109 110.831V111.19M-109 111.19V111.548M-109 111.19V111.548M-109 111.548V111.908M-109 111.548V111.908M-109 111.908V112.267M-109 111.908V112.267M-109 112.267V112.627M-109 112.267V112.627M-109 112.627V112.987M-109 112.627V112.987M-109 112.987V113.348M-109 112.987V113.348M-109 113.348V113.709M-109 113.348V113.709M-109 113.709V114.071M-109 113.709V114.071M-109 114.071V114.432M-109 114.071V114.432M-109 114.432V114.795M-109 114.432V114.795M-109 114.795V115.157M-109 114.795V115.157M-109 115.157V115.52M-109 115.157V115.52M-109 115.52V115.883M-109 115.52V115.883M-109 115.883V116.247M-109 115.883V116.247M-109 116.247V116.611M-109 116.247V116.611M-109 116.611V116.975M-109 116.611V116.975M-109 116.975V117.34M-109 116.975V117.34M-109 117.34V117.705M-109 117.34V117.705M-109 117.705V118.071M-109 117.705V118.071M-109 118.071V118.436M-109 118.071V118.436M-109 118.436V118.802M-109 118.436V118.802M-109 118.802V119.169M-109 118.802V119.169M-109 119.169V119.536M-109 119.169V119.536M-109 119.536V119.903M-109 119.536V119.903M-109 119.903V120.271M-109 119.903V120.271M-109 120.271V120.638M-109 120.271V120.638M-109 120.638V121.007M-109 120.638V121.007M-109 121.007V121.375M-109 121.007V121.375M-109 121.375V121.744M-109 121.375V121.744M-109 121.744V122.113M-109 121.744V122.113M-109 122.113V122.483M-109 122.113V122.483M-109 122.483V122.853M-109 122.483V122.853M-109 122.853V123.223M-109 122.853V123.223M-109 123.223V123.594M-109 123.223V123.594M-109 123.594V123.965M-109 123.594V123.965M-109 123.965V124.336M-109 123.965V124.336M-109 124.336V124.708M-109 124.336V124.708M-109 124.708V125.079M-109 124.708V125.079M-109 125.079V125.452M-109 125.079V125.452M-109 125.452V125.824M-109 125.452V125.824M-109 125.824V126.197M-109 125.824V126.197M-109 126.197V126.57M-109 126.197V126.57M-109 126.57V126.944M-109 126.57V126.944M-109 126.944V127.318M-109 126.944V127.318M-109 127.318V127.692M-109 127.318V127.692M-109 127.692V128.066M-109 127.692V128.066M-109 128.066V128.441M-109 128.066V128.441M-109 128.441V128.816M-109 128.441V128.816M-109 128.816V129.192M-109 128.816V129.192M-109 129.192V129.567M-109 129.192V129.567M-109 129.567V129.943M-109 129.567V129.943M-109 129.943V130.32M-109 129.943V130.32M-109 130.32V130.696M-109 130.32V130.696M-109 130.696V131.073M-109 130.696V131.073M-109 131.073V131.451M-109 131.073V131.451M-109 131.451V131.828M-109 131.451V131.828M-109 131.828V132.206M-109 131.828V132.206M-109 132.206V132.584M-109 132.206V132.584M-109 132.584V132.963M-109 132.584V132.963M-109 132.963V133.341M-109 132.963V133.341M-109 133.341V133.72M-109 133.341V133.72M-109 133.72V134.1M-109 133.72V134.1M-109 134.1V134.479M-109 134.1V134.479M-109 134.479V134.859M-109 134.479V134.859M-109 134.859V135.239M-109 134.859V135.239M-109 135.239V135.62M-109 135.239V135.62M-109 135.62V136M-109 135.62V136M-109 136V136.381M-109 136V136.381M-109 136.381V136.763M-109 136.381V136.763M-109 136.763V137.144M-109 136.763V137.144M-109 137.144V137.526M-109 137.144V137.526M-109 137.526V137.908M-109 137.526V137.908M-109 137.908V138.291M-109 137.908V138.291M-109 138.291V138.673M-109 138.291V138.673M-109 138.673V139.056M-109 138.673V139.056M-109 139.056V139.439M-109 139.056V139.439M-109 139.439V139.823M-109 139.439V139.823M-109 139.823V140.206M-109 139.823V140.206M-109 140.206V140.59M-109 140.206V140.59M-109 140.59V140.975M-109 140.59V140.975M-109 140.975V141.359M-109 140.975V141.359M-109 141.359V141.744M-109 141.359V141.744M-109 141.744V142.129M-109 141.744V142.129M-109 142.129V142.514M-109 142.129V142.514M-109 142.514V142.9M-109 142.514V142.9M-109 142.9V143.286M-109 142.9V143.286M-109 143.286V143.672M-109 143.286V143.672M-109 143.672V144.058M-109 143.672V144.058M-109 144.058V144.444M-109 144.058V144.444M-109 144.444V144.831M-109 144.444V144.831M-109 144.831V145.218M-109 144.831V145.218M-109 145.218V145.606M-109 145.218V145.606M-109 145.606V145.993M-109 145.606V145.993M-109 145.993V146.381M-109 145.993V146.381M-109 146.381V146.769M-109 146.381V146.769M-109 146.769V147.157M-109 146.769V147.157M-109 147.157V147.546M-109 147.157V147.546M-109 147.546V147.934M-109 147.546V147.934M-109 147.934V148.323M-109 147.934V148.323M-109 148.323V148.712M-109 148.323V148.712M-109 148.712V149.102M-109 148.712V149.102M-109 149.102V149.491M-109 149.102V149.491M-109 149.491V149.881M-109 149.491V149.881M-109 149.881V150.271M-109 149.881V150.271M-109 150.271V150.662M-109 150.271V150.662M-109 150.662V151.052M-109 150.662V151.052M-109 151.052V151.443M-109 151.052V151.443M-109 151.443V151.834M-109 151.443V151.834M-109 151.834V152.225M-109 151.834V152.225M-109 152.225V152.616M-109 152.225V152.616M-109 152.616V153.008M-109 152.616V153.008M-109 153.008V153.4M-109 153.008V153.4M-109 153.4V153.792M-109 153.4V153.792M-109 153.792V154.184M-109 153.792V154.184M-109 154.184V154.576M-109 154.184V154.576M-109 154.576V154.969M-109 154.576V154.969M-109 154.969V155.362M-109 154.969V155.362M-109 155.362V155.755M-109 155.362V155.755M-109 155.755V156.148M-109 155.755V156.148M-109 156.148V156.542M-109 156.148V156.542M-109 156.542V156.935M-109 156.542V156.935M-109 156.935V157.329M-109 156.935V157.329M-109 157.329V157.723M-109 157.329V157.723M-109 157.723V158.117M-109 157.723V158.117M-109 158.117V158.512M-109 158.117V158.512M-109 158.512V158.907M-109 158.512V158.907M-109 158.907V159.301M-109 158.907V159.301M-109 159.301V159.696M-109 159.301V159.696M-109 159.696V160.092M-109 159.696V160.092M-109 160.092V160.487M-109 160.092V160.487M-109 160.487V160.882M-109 160.487V160.882M-109 160.882V161.278M-109 160.882V161.278M-109 161.278V161.674M-109 161.278V161.674M-109 161.674V162.07M-109 161.674V162.07M-109 162.07V162.466M-109 162.07V162.466M-109 162.466V162.863M-109 162.466V162.863M-109 162.863V163.259M-109 162.863V163.259M-109 163.259V163.656M-109 163.259V163.656M-109 163.656V164.053M-109 163.656V164.053M-109 164.053V164.45M-109 164.053V164.45M-109 164.45V164.848M-109 164.45V164.848M-109 164.848V165.245M-109 164.848V165.245M-109 165.245V165.643M-109 165.245V165.643M-109 165.643V166.041M-109 165.643V166.041M-109 166.041V166.438M-109 166.041V166.438M-109 166.438V166.837M-109 166.438V166.837M-109 166.837V167.235M-109 166.837V167.235M-109 167.235V167.633M-109 167.235V167.633M-109 167.633V168.032M-109 167.633V168.032M-109 168.032V168.431M-109 168.032V168.431M-109 168.431V168.829M-109 168.431V168.829M-109 168.829V169.229M-109 168.829V169.229M-109 169.229V169.628M-109 169.229V169.628M-109 169.628V170.027M-109 169.628V170.027M-109 170.027V170.427M-109 170.027V170.427M-109 170.427V170.826M-109 170.427V170.826M-109 170.826V171.226M-109 170.826V171.226M-109 171.226V171.626M-109 171.226V171.626M-109 171.626V172.026M-109 171.626V172.026M-109 172.026V172.426M-109 172.026V172.426M-109 172.426V172.826M-109 172.426V172.826M-109 172.826V173.227M-109 172.826V173.227M-109 173.227V173.627M-109 173.227V173.627M-109 173.627V174.028M-109 173.627V174.028M-109 174.028V174.429M-109 174.028V174.429M-109 174.429V174.83M-109 174.429V174.83M-109 174.83V175.231M-109 174.83V175.231M-109 175.231V175.632M-109 175.231V175.632M-109 175.632V176.034M-109 175.632V176.034M-109 176.034V176.435V176.034Z" stroke="#9DF63B" stroke-width="10"/>
</svg>
