<svg width="20" height="21" viewBox="0 0 20 21" fill="none" xmlns="http://www.w3.org/2000/svg">
<path d="M2.5 18L3.875 14.8333C2.82305 13.34 2.35222 11.5142 2.55087 9.6984C2.74952 7.88262 3.60399 6.20176 4.95392 4.97124C6.30386 3.74073 8.05646 3.04515 9.88282 3.01506C11.7092 2.98496 13.4837 3.62241 14.8735 4.80778C16.2632 5.99316 17.1726 7.64496 17.431 9.4532C17.6893 11.2614 17.2789 13.1018 16.2768 14.6289C15.2746 16.1561 13.7495 17.265 11.9878 17.7476C10.2261 18.2301 8.34885 18.0532 6.70833 17.25L2.5 18Z" stroke="#FCFCFC" stroke-width="2" stroke-linecap="round" stroke-linejoin="round"/>
<path d="M7.5 8.83331C7.5 8.94382 7.5439 9.0498 7.62204 9.12794C7.70018 9.20608 7.80616 9.24998 7.91667 9.24998C8.02717 9.24998 8.13315 9.20608 8.21129 9.12794C8.28943 9.0498 8.33333 8.94382 8.33333 8.83331V7.99998C8.33333 7.88947 8.28943 7.78349 8.21129 7.70535C8.13315 7.62721 8.02717 7.58331 7.91667 7.58331C7.80616 7.58331 7.70018 7.62721 7.62204 7.70535C7.5439 7.78349 7.5 7.88947 7.5 7.99998V8.83331ZM7.5 8.83331C7.5 9.93838 7.93899 10.9982 8.72039 11.7796C9.50179 12.561 10.5616 13 11.6667 13M11.6667 13H12.5C12.6105 13 12.7165 12.9561 12.7946 12.8779C12.8728 12.7998 12.9167 12.6938 12.9167 12.5833C12.9167 12.4728 12.8728 12.3668 12.7946 12.2887C12.7165 12.2105 12.6105 12.1666 12.5 12.1666H11.6667C11.5562 12.1666 11.4502 12.2105 11.372 12.2887C11.2939 12.3668 11.25 12.4728 11.25 12.5833C11.25 12.6938 11.2939 12.7998 11.372 12.8779C11.4502 12.9561 11.5562 13 11.6667 13Z" stroke="#FCFCFC" stroke-width="2" stroke-linecap="round" stroke-linejoin="round"/>
</svg>
