<svg width="21" height="21" viewBox="0 0 21 21" fill="none" xmlns="http://www.w3.org/2000/svg">
<path d="M3.83337 7.16665C3.83337 6.28259 4.18456 5.43474 4.80968 4.80962C5.43481 4.1845 6.28265 3.83331 7.16671 3.83331H13.8334C14.7174 3.83331 15.5653 4.1845 16.1904 4.80962C16.8155 5.43474 17.1667 6.28259 17.1667 7.16665V13.8333C17.1667 14.7174 16.8155 15.5652 16.1904 16.1903C15.5653 16.8155 14.7174 17.1666 13.8334 17.1666H7.16671C6.28265 17.1666 5.43481 16.8155 4.80968 16.1903C4.18456 15.5652 3.83337 14.7174 3.83337 13.8333V7.16665Z" stroke="#FCFCFC" stroke-width="2" stroke-linecap="round" stroke-linejoin="round"/>
<path d="M14.25 6.75V6.75833M8 10.5C8 11.163 8.26339 11.7989 8.73223 12.2678C9.20107 12.7366 9.83696 13 10.5 13C11.163 13 11.7989 12.7366 12.2678 12.2678C12.7366 11.7989 13 11.163 13 10.5C13 9.83696 12.7366 9.20107 12.2678 8.73223C11.7989 8.26339 11.163 8 10.5 8C9.83696 8 9.20107 8.26339 8.73223 8.73223C8.26339 9.20107 8 9.83696 8 10.5Z" stroke="#FCFCFC" stroke-width="2" stroke-linecap="round" stroke-linejoin="round"/>
</svg>
